<svg width="100.000000" height="39.000000" viewBox="0 0 100 39" fill="none" xmlns="http://www.w3.org/2000/svg" xmlns:xlink="http://www.w3.org/1999/xlink">
	<desc>
			Created with Pixso.
	</desc>
	<defs/>
	<path id="Vectorlogo" d="M26.54 16.89C25.02 16.83 23.57 16.52 22.22 15.85C21.54 15.51 20.92 15.08 20.37 14.56C19.57 13.81 18.87 12.98 18.4 11.98C18.05 11.25 17.79 10.49 17.7 9.68C17.69 9.56 17.67 9.43 17.65 9.31C17.61 9 17.57 8.68 17.57 8.36C17.57 8.33 17.57 8.29 17.57 8.25C17.61 7.13 17.76 6.01 18.22 4.96C18.6 4.11 19.1 3.35 19.7 2.64C20.26 1.95 20.91 1.35 21.64 0.85C22.79 0.08 24.05 -0.38 25.43 -0.57C26.03 -0.64 26.62 -0.65 27.22 -0.61C28.08 -0.55 28.93 -0.35 29.74 -0.03C30.93 0.44 31.97 1.14 32.85 2.07C34.03 3.32 34.79 4.78 35.12 6.47C35.22 7.02 35.28 7.57 35.28 8.13C35.28 8.35 35.27 8.57 35.25 8.79C35.12 10.54 34.54 12.12 33.43 13.5C32.67 14.44 31.77 15.21 30.71 15.79C29.93 16.22 29.1 16.52 28.23 16.68C27.67 16.78 27.1 16.82 26.54 16.89ZM47.88 16.97C45.64 16.93 43.78 16.29 42.15 15.02C41.09 14.2 40.23 13.2 39.64 11.98C39.3 11.26 39.05 10.51 38.96 9.72C38.95 9.59 38.93 9.47 38.91 9.35C38.87 9.05 38.83 8.75 38.83 8.45C38.83 8.42 38.83 8.39 38.83 8.36C38.86 7.34 38.96 6.32 39.33 5.35C39.87 3.93 40.72 2.73 41.83 1.72C43.05 0.61 44.47 -0.09 46.1 -0.4C46.87 -0.55 47.65 -0.6 48.43 -0.53C50.05 -0.39 51.54 0.15 52.86 1.12C54.18 2.08 55.16 3.33 55.82 4.82C56.11 5.46 56.31 6.13 56.39 6.83C56.41 6.96 56.42 7.08 56.44 7.2C56.48 7.53 56.53 7.85 56.53 8.18C56.53 8.2 56.53 8.23 56.53 8.26C56.51 8.85 56.43 9.45 56.34 10.04C56.15 11.17 55.67 12.19 55.01 13.12C54.27 14.18 53.34 15.04 52.23 15.71C51.27 16.3 50.21 16.66 49.11 16.85C48.65 16.93 48.18 16.94 47.88 16.97ZM60.38 17.02L60.38 -0.5L67.14 -0.5C70.21 -0.5 72.63 0.3 74.39 1.9C76.15 3.5 77.03 5.61 77.03 8.21C77.03 10.8 76.14 12.91 74.35 14.56C72.56 16.2 70.13 17.02 67.04 17.02L60.38 17.02ZM0.19 17.02L0.19 -0.5L14.21 -0.5L14.21 3.75L5.05 3.75L5.05 6.73L13.33 6.73L13.33 10.76L5.05 10.76L5.05 17.02L0.19 17.02ZM27.27 4.73C27.26 4.7 27.25 4.67 27.24 4.65C27.79 4.05 28.36 3.48 29.05 3.03C28.84 2.61 28.52 2.42 28.12 2.34C27.97 2.31 27.84 2.35 27.74 2.48C27.58 2.69 27.41 2.91 27.25 3.13C27.12 3.32 27.01 3.52 26.84 3.8C26.72 3.29 26.45 2.98 26.08 2.78C25.69 2.57 25.27 2.52 24.85 2.6C24.78 2.75 24.75 2.9 24.75 3.04C24.75 3.25 24.81 3.44 24.91 3.63C25.23 4.23 25.81 4.45 26.48 4.58C26.42 4.73 26.37 4.85 26.32 4.99C26.15 4.94 26.02 4.89 25.88 4.85C25.19 4.66 24.49 4.62 23.77 4.73C22.84 4.86 21.87 5.79 21.67 6.84C21.63 7.1 21.6 7.36 21.6 7.62C21.6 8.04 21.66 8.46 21.75 8.88C22.03 10.12 22.6 11.2 23.55 12.04C24.3 12.7 25.16 12.99 26.15 12.66C26.33 12.6 26.49 12.6 26.67 12.66C27.41 12.91 28.1 12.79 28.77 12.4C29.46 11.99 29.94 11.38 30.33 10.7C30.87 9.75 31.15 8.72 31.15 7.64C31.15 7.5 31.15 7.36 31.14 7.23C31.07 6.12 30.35 5.11 29.23 4.78C28.67 4.62 28.1 4.63 27.53 4.71C27.44 4.73 27.35 4.73 27.27 4.73ZM44.85 3.61C44.8 3.63 44.75 3.65 44.7 3.66C44.06 3.73 43.88 3.87 43.72 4.51C43.63 4.86 43.53 5.21 43.51 5.57C43.49 5.85 43.48 6.13 43.48 6.4C43.48 7.1 43.54 7.79 43.68 8.48C43.86 9.39 44.17 10.25 44.6 11.08C45 11.85 45.51 12.52 46.27 12.98C47.06 13.46 47.92 13.62 48.82 13.5C49.55 13.4 50.22 13.11 50.8 12.64C51.75 11.87 52.29 10.86 52.32 9.65C52.32 9.61 52.32 9.57 52.32 9.53C52.32 8.07 51.63 6.95 50.39 6.18C49.95 5.91 49.47 5.7 49.01 5.45C48.59 5.21 48.21 4.93 47.9 4.55C47.59 4.17 47.29 3.77 46.84 3.53C46.52 3.35 46.17 3.23 45.8 3.28C45.64 3.31 45.49 3.37 45.28 3.42C45.34 3.16 45.39 2.94 45.45 2.69C45.3 2.64 45.18 2.6 45.04 2.56C44.88 2.84 44.84 3.11 44.84 3.4C44.84 3.47 44.84 3.54 44.85 3.61ZM65.24 12.72L67.21 12.72C68.68 12.72 69.86 12.33 70.73 11.54C71.61 10.76 72.05 9.65 72.05 8.24C72.05 6.85 71.61 5.76 70.73 4.96C69.86 4.15 68.68 3.75 67.21 3.75L65.24 3.75L65.24 12.72ZM47.41 7.79C48.13 7.82 48.88 8.1 49.5 8.64C50.08 9.16 50.45 9.86 50.45 10.64C50.45 10.67 50.45 10.7 50.45 10.74C50.39 12.16 49.04 12.83 47.89 12.23C46.81 11.66 46.22 10.73 46.22 9.49L46.22 9.47C46.22 9.16 46.25 8.83 46.32 8.53C46.46 7.94 46.68 7.79 47.41 7.79ZM0 38.43L0 20.92L7.5 20.92C9.73 20.92 11.51 21.46 12.82 22.56C14.12 23.65 14.78 25.17 14.78 27.12C14.78 29.12 14.09 30.67 12.7 31.77C11.32 32.87 9.5 33.42 7.25 33.42L4.85 33.42L4.85 38.43L0 38.43ZM26.68 23.46C26.54 23.5 26.42 23.54 26.28 23.59C26.33 23.78 26.37 23.94 26.41 24.1C26.81 25.55 27.22 27 27.62 28.45C27.78 29.04 27.94 29.62 28.1 30.21C28.12 30.28 28.13 30.35 28.13 30.42C28.13 30.82 27.78 31.11 27.33 31C27.25 30.98 27.16 30.89 27.12 30.81C26.97 30.52 26.83 30.22 26.71 29.92C26.25 28.72 25.79 27.52 25.33 26.32C25.07 25.64 24.81 24.96 24.55 24.29C24.53 24.25 24.5 24.22 24.47 24.17C24.36 24.2 24.25 24.24 24.12 24.27C24.2 24.6 24.28 24.91 24.36 25.23C24.58 26.17 24.8 27.12 25.02 28.06C25.16 28.64 25.32 29.22 25.47 29.8C25.57 30.2 25.67 30.6 25.76 31.01C25.77 31.06 25.78 31.1 25.78 31.15C25.78 31.41 25.63 31.64 25.41 31.71C25.07 31.82 24.82 31.74 24.66 31.42C24.59 31.31 24.56 31.18 24.51 31.06C23.94 29.46 23.37 27.86 22.81 26.25C22.64 25.79 22.49 25.32 22.32 24.83C22.18 24.88 22.06 24.92 21.91 24.98C22.01 25.45 22.11 25.9 22.2 26.36C22.37 27.19 22.52 28.04 22.69 28.87C22.8 29.39 22.93 29.91 23.07 30.42C23.29 31.24 23.54 32.03 23.95 32.78C24.25 33.34 24.69 33.72 25.22 34C25.78 34.3 26.3 34.64 26.63 35.2C26.91 35.66 27.17 36.15 27.39 36.64C27.63 37.16 27.82 37.7 28.05 38.28C27.71 38.33 27.38 38.41 27.05 38.43C25.83 38.5 24.64 38.37 23.48 37.96C22.5 37.62 21.61 37.13 20.81 36.46C19.99 35.77 19.23 35.03 18.64 34.13C18 33.16 17.59 32.1 17.44 30.95C17.43 30.85 17.42 30.75 17.4 30.65C17.36 30.31 17.31 29.97 17.31 29.64C17.31 29.6 17.31 29.56 17.31 29.52C17.35 28.35 17.51 27.2 18.01 26.11C18.56 24.93 19.34 23.92 20.33 23.07C21.54 22.02 22.94 21.43 24.48 21.12C25.33 20.94 26.21 20.87 27.08 20.95C28.88 21.13 30.5 21.76 31.91 22.92C32.87 23.71 33.63 24.66 34.18 25.76C34.63 26.65 34.9 27.59 35.04 28.58C35.09 28.95 35.11 29.32 35.11 29.69C35.11 29.93 35.11 30.17 35.09 30.4C35.02 31.27 34.82 32.12 34.49 32.93C34.02 34.11 33.33 35.13 32.41 36.01C31.58 36.81 30.62 37.42 29.54 37.85C29.49 37.87 29.44 37.88 29.39 37.89C29.38 37.89 29.36 37.89 29.34 37.88C29.33 37.88 29.31 37.88 29.3 37.88C29.12 37.61 29.1 37.27 29.03 36.97C28.91 36.46 28.81 35.95 28.74 35.44C28.73 35.4 28.73 35.35 28.72 35.31C28.68 35.04 28.64 34.75 28.64 34.48C28.64 34.28 28.66 34.09 28.71 33.9C28.8 33.57 28.91 33.25 29.07 32.95C29.36 32.41 29.5 31.85 29.5 31.28C29.5 30.88 29.43 30.49 29.31 30.08C29.08 29.3 28.82 28.52 28.53 27.76C28.24 27 27.91 26.25 27.59 25.5C27.36 24.96 27.12 24.42 26.89 23.89C26.83 23.75 26.76 23.61 26.68 23.46ZM43.88 38.63L38.03 20.97L43.16 20.97L46.21 31.11L49.59 20.92L53.77 20.92L57.15 31.11L60.21 20.97L65.24 20.97L59.38 38.63L55.15 38.63L51.62 28.54L48.12 38.63L43.88 38.63ZM67.17 38.5L67.17 20.97L81.27 20.97L81.27 25.1L71.98 25.1L71.98 27.76L80.39 27.76L80.39 31.59L71.98 31.59L71.98 34.37L81.39 34.37L81.39 38.5L67.17 38.5ZM83.87 38.5L83.87 20.97L92.16 20.97C94.71 20.97 96.62 21.6 97.87 22.85C98.9 23.89 99.42 25.27 99.42 27.01C99.42 29.58 98.22 31.37 95.81 32.39L100 38.5L94.39 38.5L90.86 33.19L88.73 33.19L88.73 38.5L83.87 38.5ZM4.85 29.62L7.15 29.62C8.02 29.62 8.7 29.41 9.19 29C9.68 28.58 9.93 28.01 9.93 27.3C9.93 26.55 9.68 25.97 9.19 25.58C8.7 25.19 8.01 25 7.12 25L4.85 25L4.85 29.62ZM88.73 29.39L91.93 29.39C92.75 29.39 93.39 29.2 93.85 28.82C94.31 28.45 94.54 27.93 94.54 27.26C94.54 26.58 94.31 26.06 93.85 25.71C93.39 25.36 92.74 25.18 91.91 25.18L88.73 25.18L88.73 29.39Z" fill="#40B93C" fill-opacity="1.000000" fill-rule="evenodd"/>
</svg>
